<svg width="512" height="582" viewBox="0 0 512 582" fill="none" xmlns="http://www.w3.org/2000/svg">
<path d="M256.422 401.51L256.378 401.554L146.143 291.761L135.443 302.505L256.465 423.042L267.098 412.143L256.422 401.51Z" fill="#3C6B71"/>
<path d="M374.23 302.332L363.476 291.622L256.422 401.51L267.098 412.143L374.23 302.332Z" fill="#3C6B71"/>
<path d="M384.863 291.433L374.102 280.715L363.655 291.438L363.476 291.622L374.23 302.332L384.863 291.433Z" fill="#3C6B71"/>
<path d="M254.4 161.493L243.836 172.099L363.655 291.438L374.102 280.715L254.4 161.493Z" fill="#3C6B71"/>
<path d="M243.836 172.099L135.399 280.973L146.187 291.717L254.443 183.026L363.476 291.622L363.655 291.438L243.836 172.099Z" fill="#3C6B71"/>
<path d="M135.356 281.017L124.611 291.804L135.399 302.549L135.443 302.505L146.143 291.761L135.356 281.017Z" fill="#3C6B71"/>
<path d="M124.611 291.804L135.356 281.017L116.137 261.875C89.3265 235.172 87.8198 189.82 114.523 163.009L80.3919 197.14C76.1677 223.715 84.9432 252.296 105.393 272.663L124.611 291.804Z" fill="#3C6B71"/>
<path d="M102.467 153.533C90.1982 165.852 82.9365 181.132 80.3919 197.14L114.523 163.009L102.467 153.533Z" fill="#3C6B71"/>
<path d="M396.85 162.382C423.264 188.9 419.642 233.883 393.619 260.682L374.102 280.715L384.863 291.433L403.174 272.663C423.828 251.926 433.166 221.953 428.935 194.467L396.85 162.382Z" fill="#3C6B71"/>
<path d="M428.935 194.467L476.707 242.239L477.329 242.869C503.256 269.462 503.256 311.912 477.329 338.504L476.707 339.135L428.529 387.312C425.465 403.069 417.845 418.117 405.667 430.344L256 581.374L487.473 349.901C520.176 317.198 520.176 264.176 487.473 231.473L407.638 151.638C419.539 163.587 426.494 178.613 428.935 194.467Z" fill="#3C6B71"/>
<path d="M428.935 194.467C426.494 178.613 419.539 163.587 407.638 151.638L256 0L219.902 36.0982C208.977 48.2271 202.224 62.7755 199.636 77.8959L233.628 43.741L256 21.5324L396.85 162.382L428.935 194.467Z" fill="#3C6B71"/>
<path d="M219.902 36.0982L102.467 153.533L114.523 163.009L199.636 77.8959C202.224 62.7755 208.977 48.2271 219.902 36.0982Z" fill="#3C6B71"/>
<path d="M24.5272 231.473C-8.17573 264.176 -8.17575 317.198 24.5272 349.901L95.7652 421.139C87.6148 410.051 82.5394 397.408 80.5411 384.382L35.2934 339.135C8.53643 312.378 8.53643 268.996 35.2934 242.239L80.3919 197.14C82.9365 181.132 90.1982 165.852 102.467 153.533L24.5272 231.473Z" fill="#3C6B71"/>
<path d="M115.796 419.637C112.982 416.835 109.625 414.373 107.4 411.241L80.5411 384.382C82.5394 397.408 87.6148 410.051 95.7652 421.139L256 581.374L405.667 430.344C417.845 418.117 425.465 403.069 428.529 387.312L309.526 506.315L256 559.841L115.796 419.637Z" fill="#3C6B71"/>
<path d="M395.499 418.968L309.526 506.315C309.454 506.731 309.605 505.9 309.526 506.315L428.529 387.312C433.676 360.844 425.97 332.375 405.429 311.917L384.863 291.433L374.23 302.332L394.684 322.704C421.285 349.199 421.579 392.112 395.499 418.968Z" fill="#3C6B71"/>
<path d="M275.605 442.106C302.206 468.6 301.918 513.146 275.839 540.002L309.526 506.315C314.047 480.317 306.466 451.353 286.35 431.318L267.098 412.143L256.465 423.042L275.605 442.106Z" fill="#3C6B71"/>
<path d="M114.764 323.267L103.976 312.522C84.4503 332.127 76.6443 358.981 80.5411 384.382L107.4 411.241C88.425 384.535 90.8637 347.263 114.764 323.267Z" fill="#3C6B71"/>
<path d="M103.976 312.522L114.764 323.267L135.399 302.549L124.611 291.804L103.976 312.522Z" fill="#3C6B71"/>
<path d="M233.628 43.741L199.636 77.8959C195.199 103.83 203.019 131.446 223.078 151.424L243.836 172.099L254.4 161.493L233.459 140.636C207.57 114.851 209.622 70.6922 233.628 43.741Z" fill="#3C6B71"/>
</svg>
